<svg xmlns="http://www.w3.org/2000/svg" xmlns:xlink="http://www.w3.org/1999/xlink" width="500" zoomAndPan="magnify" viewBox="0 0 375 374.999991" height="500" preserveAspectRatio="xMidYMid meet" version="1.0"><defs><clipPath id="124abbd762"><path d="M 28 50.988281 L 347 50.988281 L 347 375 L 28 375 Z M 28 50.988281 " clip-rule="nonzero"/></clipPath><clipPath id="1ff84b15b5"><path d="M 0 14.589844 L 38.25 14.589844 L 38.25 26.589844 L 0 26.589844 Z M 0 14.589844 " clip-rule="nonzero"/></clipPath></defs><rect x="-37.5" width="450" fill="#ffffff" y="-37.499999" height="449.999989" fill-opacity="1"/><rect x="-37.5" width="450" fill="#ffffff" y="-37.499999" height="449.999989" fill-opacity="1"/><g clip-path="url(#124abbd762)"><path fill="#0d64be" d="M 80.097656 386 L 90.78125 402.992188 C 90.894531 403.175781 91.054688 403.292969 91.265625 403.347656 L 110.988281 408.433594 C 111.265625 408.503906 111.472656 408.699219 111.558594 408.972656 C 111.648438 409.25 111.59375 409.527344 111.40625 409.746094 L 98.652344 424.855469 C 98.515625 425.023438 98.449219 425.210938 98.460938 425.425781 L 99.628906 446.058594 C 99.644531 446.347656 99.523438 446.601562 99.285156 446.769531 C 99.050781 446.933594 98.769531 446.964844 98.503906 446.855469 L 79.722656 439.085938 C 79.515625 439 79.304688 439 79.101562 439.085938 L 60.316406 446.855469 C 60.050781 446.964844 59.769531 446.933594 59.535156 446.769531 C 59.300781 446.601562 59.175781 446.347656 59.191406 446.058594 L 60.359375 425.425781 C 60.371094 425.210938 60.308594 425.023438 60.167969 424.855469 L 47.414062 409.746094 C 47.230469 409.527344 47.175781 409.246094 47.261719 408.972656 C 47.347656 408.699219 47.554688 408.503906 47.832031 408.433594 L 67.554688 403.347656 C 67.765625 403.292969 67.925781 403.175781 68.042969 402.992188 L 78.722656 386 C 78.875 385.753906 79.121094 385.617188 79.410156 385.617188 C 79.699219 385.617188 79.945312 385.753906 80.097656 386 Z M 98.285156 237.382812 L 108.988281 218.84375 L 108.980469 218.835938 L 118.746094 201.917969 C 120.472656 198.9375 124.230469 197.957031 127.359375 199.890625 C 127.367188 199.894531 127.375 199.898438 127.382812 199.902344 L 160.636719 219.101562 C 161.023438 219.324219 161.523438 219.191406 161.746094 218.804688 L 190.386719 169.203125 C 190.523438 168.960938 190.535156 168.6875 190.410156 168.4375 C 190.289062 168.1875 190.066406 168.027344 189.792969 167.992188 L 160.214844 163.925781 C 154.308594 163.125 153.039062 155.402344 158.175781 152.53125 C 158.179688 152.527344 158.1875 152.523438 158.191406 152.523438 L 212.617188 120.667969 C 212.90625 120.496094 213.058594 120.1875 213.011719 119.859375 C 212.96875 119.527344 212.742188 119.269531 212.421875 119.179688 C 179.304688 110.117188 144.351562 119.792969 120.617188 143.527344 C 96.371094 167.773438 86.863281 203.644531 96.800781 237.207031 C 96.894531 237.523438 97.15625 237.742188 97.484375 237.78125 C 97.816406 237.820312 98.117188 237.671875 98.285156 237.382812 Z M 261.246094 153.65625 C 261.25 153.300781 261.46875 153.003906 261.804688 152.890625 C 262.136719 152.78125 262.492188 152.890625 262.703125 153.171875 C 291.261719 190.671875 287.773438 243.707031 254.285156 277.195312 C 219.550781 311.929688 164.015625 314.261719 126.53125 282.628906 C 126.226562 282.371094 126.152344 281.945312 126.351562 281.597656 L 138.371094 260.78125 C 138.59375 260.394531 139.09375 260.257812 139.480469 260.484375 L 173.066406 279.871094 L 173.070312 279.863281 C 175.953125 281.546875 179.695312 280.558594 181.378906 277.632812 L 230.304688 192.890625 C 230.445312 192.644531 230.683594 192.5 230.972656 192.484375 C 231.257812 192.472656 231.507812 192.597656 231.671875 192.832031 L 249.550781 218.316406 L 249.558594 218.308594 C 252.929688 223.09375 260.546875 220.777344 260.601562 214.863281 Z M 82.585938 313.652344 C 79.660156 310.683594 76.867188 307.601562 74.21875 304.417969 C 73.996094 304.152344 73.964844 303.792969 74.136719 303.492188 L 119.496094 224.929688 L 119.507812 224.933594 L 125.835938 213.96875 C 126.0625 213.582031 126.5625 213.449219 126.949219 213.671875 L 160.546875 233.070312 C 163.449219 234.738281 167.152344 233.742188 168.828125 230.851562 L 168.839844 230.855469 L 206.046875 166.410156 C 208.1875 162.707031 205.980469 157.855469 201.394531 157.308594 C 201.390625 157.308594 201.386719 157.308594 201.382812 157.304688 L 181.363281 154.554688 C 181.023438 154.507812 180.757812 154.269531 180.679688 153.933594 C 180.605469 153.601562 180.730469 153.269531 181.015625 153.078125 L 254.316406 103.429688 C 254.582031 103.25 254.902344 103.238281 255.179688 103.398438 C 255.457031 103.558594 255.605469 103.84375 255.582031 104.164062 L 248.824219 193.574219 C 248.796875 193.921875 248.566406 194.203125 248.226562 194.296875 C 247.890625 194.390625 247.546875 194.265625 247.347656 193.980469 L 235.429688 176.992188 C 232.972656 173.488281 227.378906 173.320312 224.984375 177.820312 C 224.976562 177.828125 224.976562 177.835938 224.96875 177.84375 L 174.304688 265.601562 C 174.078125 265.988281 173.582031 266.121094 173.191406 265.898438 L 139.601562 246.503906 C 136.691406 244.820312 132.972656 245.808594 131.285156 248.71875 L 90.328125 319.65625 C 90.203125 319.875 90.003906 320.011719 89.753906 320.054688 C 89.503906 320.09375 89.269531 320.023438 89.082031 319.855469 C 86.851562 317.851562 84.683594 315.78125 82.585938 313.652344 Z M 187.449219 50.984375 C 275.472656 50.984375 346.828125 122.339844 346.828125 210.363281 C 346.828125 298.382812 275.472656 369.742188 187.449219 369.742188 C 99.429688 369.742188 28.070312 298.382812 28.070312 210.363281 C 28.070312 122.34375 99.429688 50.984375 187.449219 50.984375 Z M 296.179688 386 L 306.859375 402.992188 C 306.972656 403.175781 307.132812 403.292969 307.34375 403.347656 L 327.066406 408.433594 C 327.347656 408.503906 327.550781 408.699219 327.636719 408.972656 C 327.726562 409.25 327.671875 409.527344 327.484375 409.746094 L 314.730469 424.855469 C 314.59375 425.023438 314.53125 425.210938 314.542969 425.425781 L 315.707031 446.058594 C 315.722656 446.347656 315.601562 446.601562 315.367188 446.769531 C 315.128906 446.933594 314.851562 446.964844 314.585938 446.855469 L 295.800781 439.085938 C 295.59375 439 295.386719 439 295.179688 439.085938 L 276.394531 446.855469 C 276.128906 446.964844 275.847656 446.933594 275.613281 446.769531 C 275.378906 446.601562 275.253906 446.347656 275.273438 446.058594 L 276.4375 425.425781 C 276.449219 425.210938 276.386719 425.023438 276.246094 424.855469 L 263.492188 409.746094 C 263.308594 409.527344 263.253906 409.246094 263.339844 408.972656 C 263.429688 408.699219 263.632812 408.503906 263.910156 408.433594 L 283.636719 403.347656 C 283.84375 403.292969 284.007812 403.175781 284.121094 402.992188 L 294.800781 386 C 294.953125 385.753906 295.203125 385.617188 295.488281 385.617188 C 295.777344 385.617188 296.023438 385.753906 296.179688 386 Z M 188.140625 386 L 198.820312 402.992188 C 198.933594 403.175781 199.09375 403.292969 199.304688 403.347656 L 219.027344 408.433594 C 219.308594 408.503906 219.511719 408.699219 219.597656 408.972656 C 219.6875 409.25 219.632812 409.527344 219.445312 409.746094 L 206.691406 424.855469 C 206.554688 425.023438 206.492188 425.210938 206.503906 425.425781 L 207.667969 446.058594 C 207.683594 446.347656 207.5625 446.601562 207.328125 446.769531 C 207.089844 446.933594 206.8125 446.964844 206.546875 446.855469 L 187.761719 439.085938 C 187.554688 439 187.347656 439 187.140625 439.085938 L 168.355469 446.855469 C 168.089844 446.964844 167.808594 446.933594 167.574219 446.769531 C 167.339844 446.601562 167.21875 446.347656 167.234375 446.058594 L 168.398438 425.425781 C 168.410156 425.210938 168.347656 425.023438 168.207031 424.855469 L 155.453125 409.746094 C 155.269531 409.527344 155.214844 409.246094 155.300781 408.972656 C 155.390625 408.699219 155.59375 408.503906 155.871094 408.433594 L 175.597656 403.347656 C 175.804688 403.292969 175.96875 403.175781 176.082031 402.992188 L 186.761719 386 C 186.914062 385.753906 187.164062 385.617188 187.449219 385.617188 C 187.738281 385.617188 187.984375 385.753906 188.140625 386 Z M 188.140625 386 " fill-opacity="1" fill-rule="evenodd"/></g><g clip-path="url(#1ff84b15b5)"><path fill="#cecdcd" d="M 31.976562 26.066406 C 31.773438 26.082031 31.574219 26.097656 31.375 26.109375 C 30.03125 26.207031 28.6875 26.292969 27.34375 26.363281 C 25.515625 26.464844 23.6875 26.546875 21.859375 26.574219 C 20.152344 26.601562 18.441406 26.570312 16.734375 26.554688 C 15.117188 26.539062 13.5 26.519531 11.882812 26.503906 C 10.925781 26.492188 9.972656 26.472656 9.011719 26.421875 C 8.015625 26.371094 7.019531 26.300781 6.027344 26.195312 C 5.160156 26.101562 4.285156 25.988281 3.4375 25.773438 C 2.640625 25.566406 1.835938 25.234375 1.214844 24.671875 C 0.691406 24.203125 0.363281 23.570312 0.222656 22.875 C 0.078125 22.175781 0.0703125 21.425781 0.105469 20.714844 C 0.160156 19.628906 0.136719 18.5 0.550781 17.480469 C 1.148438 15.996094 2.511719 15.230469 3.980469 14.914062 C 4.835938 14.730469 5.710938 14.664062 6.582031 14.628906 C 7.523438 14.59375 8.464844 14.585938 9.40625 14.59375 C 10.386719 14.605469 11.371094 14.625 12.351562 14.636719 C 14.191406 14.65625 16.035156 14.667969 17.875 14.648438 C 19.523438 14.632812 21.175781 14.601562 22.824219 14.597656 C 24.449219 14.59375 26.074219 14.597656 27.695312 14.605469 C 28.53125 14.613281 29.367188 14.609375 30.203125 14.632812 C 31.835938 14.675781 33.53125 14.738281 35.070312 15.351562 C 35.390625 15.480469 35.703125 15.632812 36.003906 15.796875 C 36.328125 15.976562 36.667969 16.160156 36.957031 16.398438 C 37.601562 16.929688 37.925781 17.753906 38.066406 18.570312 C 38.207031 19.375 38.152344 20.167969 38.148438 20.980469 C 38.144531 21.535156 38.132812 22.097656 38.042969 22.652344 C 37.882812 23.628906 37.40625 24.429688 36.566406 24.941406 C 36.011719 25.28125 35.378906 25.488281 34.75 25.644531 C 33.839844 25.867188 32.90625 25.984375 31.976562 26.066406 C 31.726562 26.089844 31.855469 25.886719 32.023438 25.871094 C 32.910156 25.792969 33.796875 25.6875 34.664062 25.480469 C 35.679688 25.234375 36.773438 24.832031 37.320312 23.847656 C 37.8125 22.960938 37.765625 21.890625 37.792969 20.90625 C 37.84375 19.324219 37.855469 17.300781 36.367188 16.355469 C 35.792969 15.988281 35.1875 15.664062 34.550781 15.433594 C 33.875 15.191406 33.171875 15.058594 32.464844 14.976562 C 31.308594 14.84375 30.144531 14.828125 28.988281 14.816406 C 27.667969 14.808594 26.347656 14.800781 25.027344 14.796875 C 21.644531 14.789062 18.265625 14.867188 14.882812 14.855469 C 12.15625 14.847656 9.425781 14.734375 6.699219 14.820312 C 5.828125 14.847656 4.949219 14.902344 4.089844 15.074219 C 3.40625 15.214844 2.722656 15.441406 2.144531 15.851562 C 1.484375 16.316406 1.015625 17.011719 0.777344 17.792969 C 0.621094 18.308594 0.554688 18.84375 0.519531 19.375 C 0.484375 19.886719 0.449219 20.410156 0.449219 20.921875 C 0.449219 21.621094 0.453125 22.332031 0.632812 23.011719 C 0.816406 23.710938 1.210938 24.296875 1.777344 24.726562 C 2.449219 25.230469 3.261719 25.503906 4.070312 25.675781 C 4.957031 25.863281 5.859375 25.96875 6.757812 26.054688 C 9.339844 26.292969 11.921875 26.300781 14.511719 26.332031 C 17.945312 26.367188 21.378906 26.429688 24.808594 26.292969 C 27.21875 26.195312 29.625 26.058594 32.023438 25.871094 C 32.273438 25.855469 32.144531 26.054688 31.976562 26.066406 Z M 31.976562 26.066406 " fill-opacity="1" fill-rule="nonzero"/></g></svg>